<svg id="visual" viewBox="0 0 1920 600" width="1920" height="600" xmlns="http://www.w3.org/2000/svg" xmlns:xlink="http://www.w3.org/1999/xlink" version="1.1"><rect x="0" y="0" width="1920" height="600" fill="#A7C9FE"></rect><path d="M0 437L32 432.8C64 428.7 128 420.3 192 422C256 423.7 320 435.3 384 439C448 442.7 512 438.3 576 436.2C640 434 704 434 768 434C832 434 896 434 960 429.5C1024 425 1088 416 1152 410C1216 404 1280 401 1344 406.8C1408 412.7 1472 427.3 1536 428C1600 428.7 1664 415.3 1728 406C1792 396.7 1856 391.3 1888 388.7L1920 386L1920 601L1888 601C1856 601 1792 601 1728 601C1664 601 1600 601 1536 601C1472 601 1408 601 1344 601C1280 601 1216 601 1152 601C1088 601 1024 601 960 601C896 601 832 601 768 601C704 601 640 601 576 601C512 601 448 601 384 601C320 601 256 601 192 601C128 601 64 601 32 601L0 601Z" fill="#2d7cfe"></path><path d="M0 424L32 432C64 440 128 456 192 464C256 472 320 472 384 471.3C448 470.7 512 469.3 576 462.7C640 456 704 444 768 442.8C832 441.7 896 451.3 960 453.7C1024 456 1088 451 1152 452.8C1216 454.7 1280 463.3 1344 465.2C1408 467 1472 462 1536 462.8C1600 463.7 1664 470.3 1728 468.7C1792 467 1856 457 1888 452L1920 447L1920 601L1888 601C1856 601 1792 601 1728 601C1664 601 1600 601 1536 601C1472 601 1408 601 1344 601C1280 601 1216 601 1152 601C1088 601 1024 601 960 601C896 601 832 601 768 601C704 601 640 601 576 601C512 601 448 601 384 601C320 601 256 601 192 601C128 601 64 601 32 601L0 601Z" fill="#5c9fff"></path><path d="M0 515L32 509.3C64 503.7 128 492.3 192 483.2C256 474 320 467 384 467.8C448 468.7 512 477.3 576 486.7C640 496 704 506 768 503.3C832 500.7 896 485.3 960 478C1024 470.7 1088 471.3 1152 478.5C1216 485.7 1280 499.3 1344 501.2C1408 503 1472 493 1536 485.3C1600 477.7 1664 472.3 1728 474.5C1792 476.7 1856 486.3 1888 491.2L1920 496L1920 601L1888 601C1856 601 1792 601 1728 601C1664 601 1600 601 1536 601C1472 601 1408 601 1344 601C1280 601 1216 601 1152 601C1088 601 1024 601 960 601C896 601 832 601 768 601C704 601 640 601 576 601C512 601 448 601 384 601C320 601 256 601 192 601C128 601 64 601 32 601L0 601Z" fill="#8ebfff"></path><path d="M0 524L32 520.5C64 517 128 510 192 511.3C256 512.7 320 522.3 384 524C448 525.7 512 519.3 576 520.8C640 522.3 704 531.7 768 536.8C832 542 896 543 960 540.5C1024 538 1088 532 1152 530.7C1216 529.3 1280 532.7 1344 535.7C1408 538.7 1472 541.3 1536 535.7C1600 530 1664 516 1728 514.8C1792 513.7 1856 525.3 1888 531.2L1920 537L1920 601L1888 601C1856 601 1792 601 1728 601C1664 601 1600 601 1536 601C1472 601 1408 601 1344 601C1280 601 1216 601 1152 601C1088 601 1024 601 960 601C896 601 832 601 768 601C704 601 640 601 576 601C512 601 448 601 384 601C320 601 256 601 192 601C128 601 64 601 32 601L0 601Z" fill="#c2ddfd"></path><path d="M0 553L32 553.7C64 554.3 128 555.7 192 559.5C256 563.3 320 569.7 384 569.2C448 568.7 512 561.3 576 559.2C640 557 704 560 768 563.2C832 566.3 896 569.7 960 566C1024 562.3 1088 551.7 1152 551.7C1216 551.7 1280 562.3 1344 564.7C1408 567 1472 561 1536 558.7C1600 556.3 1664 557.7 1728 560.8C1792 564 1856 569 1888 571.5L1920 574L1920 601L1888 601C1856 601 1792 601 1728 601C1664 601 1600 601 1536 601C1472 601 1408 601 1344 601C1280 601 1216 601 1152 601C1088 601 1024 601 960 601C896 601 832 601 768 601C704 601 640 601 576 601C512 601 448 601 384 601C320 601 256 601 192 601C128 601 64 601 32 601L0 601Z" fill="#f9fafb"></path></svg>